<svg width="32" height="32" viewBox="0 0 32 32" fill="none" xmlns="http://www.w3.org/2000/svg">
<path d="M22.4986 23.0822C22.421 23.0823 22.3441 23.0671 22.2725 23.0373C22.2008 23.0076 22.1358 22.964 22.081 22.909L9.08648 9.91448C8.98039 9.80281 8.92211 9.65411 8.92409 9.50009C8.92606 9.34607 8.98812 9.19891 9.09704 9.08999C9.20596 8.98107 9.35312 8.91901 9.50714 8.91704C9.66116 8.91507 9.80986 8.97334 9.92153 9.07944L22.9161 22.074C22.9986 22.1566 23.0548 22.2618 23.0776 22.3764C23.1004 22.4909 23.0887 22.6096 23.044 22.7175C22.9993 22.8254 22.9236 22.9176 22.8266 22.9825C22.7295 23.0474 22.6153 23.0821 22.4986 23.0822ZM15.9887 20.7195C14.4571 20.7195 12.98 20.2662 11.5986 19.3721C10.3409 18.5599 9.20868 17.3967 8.32416 16.0127V16.0097C9.06027 14.955 9.86652 14.0631 10.7326 13.344C10.7404 13.3375 10.7468 13.3294 10.7514 13.3202C10.7559 13.3111 10.7585 13.3011 10.759 13.2909C10.7595 13.2807 10.7578 13.2705 10.7542 13.261C10.7505 13.2514 10.7449 13.2427 10.7378 13.2355L10.0024 12.5012C9.98931 12.488 9.97176 12.4803 9.95322 12.4794C9.93468 12.4786 9.91651 12.4848 9.90233 12.4968C8.98238 13.272 8.1285 14.223 7.35215 15.3364C7.21858 15.5281 7.14502 15.7552 7.14082 15.9888C7.13661 16.2224 7.20195 16.452 7.32853 16.6484C8.30349 18.1741 9.55827 19.4592 10.9567 20.364C12.5311 21.384 14.2256 21.9008 15.9887 21.9008C16.9404 21.8979 17.8854 21.7411 18.787 21.4364C18.7989 21.4324 18.8096 21.4254 18.818 21.4161C18.8264 21.4068 18.8323 21.3955 18.8352 21.3833C18.838 21.371 18.8377 21.3583 18.8342 21.3462C18.8308 21.3341 18.8243 21.3231 18.8154 21.3142L18.0188 20.5176C18.0004 20.4997 17.9777 20.4869 17.953 20.4804C17.9282 20.4739 17.9021 20.474 17.8774 20.4807C17.2604 20.6396 16.6258 20.7198 15.9887 20.7195ZM24.6707 15.3519C23.6939 13.8413 22.4266 12.5581 21.006 11.6407C19.4345 10.6248 17.6994 10.0876 15.9887 10.0876C15.0471 10.0893 14.1125 10.2494 13.2241 10.5613C13.2122 10.5654 13.2016 10.5724 13.1933 10.5818C13.1849 10.5911 13.1791 10.6025 13.1763 10.6147C13.1736 10.6269 13.1739 10.6396 13.1774 10.6517C13.181 10.6637 13.1875 10.6746 13.1964 10.6835L13.9919 11.479C14.0104 11.4972 14.0334 11.5102 14.0586 11.5167C14.0837 11.5232 14.1101 11.5229 14.1352 11.5159C14.7395 11.3524 15.3627 11.2694 15.9887 11.2689C17.4909 11.2689 18.9634 11.7278 20.3652 12.6348C21.6465 13.4618 22.792 14.6239 23.6788 15.9942C23.6794 15.9951 23.6798 15.9961 23.6798 15.9972C23.6798 15.9983 23.6794 15.9993 23.6788 16.0001C23.0351 17.0135 22.2364 17.9195 21.3117 18.6851C21.3038 18.6916 21.2973 18.6997 21.2927 18.7089C21.2881 18.718 21.2854 18.7281 21.2849 18.7383C21.2844 18.7485 21.286 18.7588 21.2897 18.7684C21.2933 18.778 21.2989 18.7867 21.3062 18.794L22.0408 19.5282C22.0538 19.5414 22.0712 19.5491 22.0897 19.55C22.1081 19.5509 22.1263 19.5449 22.1405 19.533C23.1276 18.7019 23.9821 17.7249 24.6744 16.6358C24.7968 16.4439 24.8615 16.2209 24.8608 15.9933C24.8602 15.7657 24.7942 15.5431 24.6707 15.3519Z" fill="#252629"/>
<path d="M15.9998 12.4512C15.7343 12.451 15.4697 12.4807 15.2109 12.5398C15.1978 12.5425 15.1857 12.5487 15.1759 12.5577C15.1661 12.5668 15.1589 12.5783 15.1551 12.5911C15.1513 12.6039 15.1511 12.6175 15.1544 12.6304C15.1577 12.6434 15.1645 12.6552 15.174 12.6645L19.3304 16.8199C19.3398 16.8293 19.3516 16.8361 19.3645 16.8394C19.3774 16.8428 19.391 16.8425 19.4038 16.8387C19.4166 16.8349 19.4282 16.8277 19.4372 16.8179C19.4462 16.8081 19.4524 16.796 19.4552 16.7829C19.5735 16.2639 19.5734 15.7249 19.4548 15.2059C19.3363 14.6869 19.1023 14.2013 18.7704 13.7852C18.4384 13.369 18.0169 13.033 17.5373 12.802C17.0577 12.5711 16.5321 12.4512 15.9998 12.4512ZM12.6692 15.1704C12.6598 15.1609 12.648 15.1542 12.6351 15.1508C12.6222 15.1475 12.6086 15.1478 12.5958 15.1516C12.583 15.1553 12.5714 15.1625 12.5624 15.1724C12.5533 15.1822 12.5471 15.1943 12.5444 15.2073C12.4105 15.7922 12.4274 16.4015 12.5933 16.9781C12.7592 17.5548 13.0688 18.0798 13.4931 18.5041C13.9174 18.9283 14.4424 19.2379 15.019 19.4039C15.5956 19.5698 16.2049 19.5866 16.7898 19.4527C16.8029 19.45 16.815 19.4438 16.8248 19.4348C16.8346 19.4257 16.8418 19.4142 16.8456 19.4014C16.8494 19.3886 16.8496 19.375 16.8463 19.3621C16.843 19.3491 16.8362 19.3373 16.8267 19.3279L12.6692 15.1704Z" fill="#252629"/>
</svg>
