<svg width="32" height="32" viewBox="0 0 32 32" fill="none" xmlns="http://www.w3.org/2000/svg">
<path d="M16.0014 18.3894C17.3062 18.3894 18.364 17.3316 18.364 16.0267C18.364 14.7219 17.3062 13.6641 16.0014 13.6641C14.6965 13.6641 13.6387 14.7219 13.6387 16.0267C13.6387 17.3316 14.6965 18.3894 16.0014 18.3894Z" fill="#43A1E5"/>
<path d="M24.671 15.3845C23.6942 13.8738 22.4268 12.5906 21.0063 11.6732C19.4347 10.6573 17.6996 10.1201 15.9889 10.1201C14.4192 10.1201 12.8757 10.5687 11.4012 11.4532C9.89758 12.3551 8.53535 13.6726 7.35216 15.369C7.21859 15.5607 7.14502 15.7878 7.14082 16.0214C7.13661 16.255 7.20195 16.4846 7.32853 16.681C8.30351 18.2068 9.55832 19.4919 10.9567 20.3967C12.5312 21.4167 14.2257 21.9335 15.9889 21.9335C17.7133 21.9335 19.4521 21.4008 21.017 20.3934C22.4368 19.4789 23.7016 18.1909 24.6747 16.6677C24.7969 16.4759 24.8615 16.253 24.8609 16.0256C24.8602 15.7981 24.7943 15.5756 24.671 15.3845ZM16.0014 19.5709C15.3005 19.5709 14.6153 19.363 14.0325 18.9736C13.4497 18.5842 12.9954 18.0307 12.7272 17.3831C12.4589 16.7355 12.3888 16.0229 12.5255 15.3354C12.6622 14.648 12.9998 14.0165 13.4954 13.5208C13.9911 13.0252 14.6226 12.6876 15.31 12.5509C15.9975 12.4142 16.7101 12.4843 17.3577 12.7526C18.0053 13.0208 18.5588 13.4751 18.9482 14.0579C19.3376 14.6407 19.5455 15.3259 19.5455 16.0268C19.5444 16.9664 19.1707 17.8672 18.5063 18.5317C17.8419 19.1961 16.941 19.5698 16.0014 19.5709Z" fill="#43A1E5"/>
</svg>
